# xmcd CD database file
#
# Track frame offsets:
#	150
#	14424
#	30886
#	47033
#	65976
#	78667
#	95221
#	110530
#	134485
#	150527
#	160679
#	172566
#	187164
#
# Disc length: 2938 seconds
#
# Revision: 0
# Processed by: cddbd v1.5.2PL0 Copyright (c) Steve Scherf et al.
# Submitted via: CDex 1.51
#
DISCID=a80b780d
DTITLE=Maison Dixon - Dogfood and Diesel
DYEAR=2005
DGENRE=Country
TTITLE0=Write me a few of your lines (Trad.)
TTITLE1=Short Man's Room (J. Henry)
TTITLE2=Wade in the Water (Trad.)
TTITLE3=Sitting alone in the Moonlight/Midnight on the Water (B. Monroe)
TTITLE4=Jambalaya (H. Williams Sr.)
TTITLE5=Fuse (J. Henry)
TTITLE6=Big Boss Man (J. Reed)
TTITLE7=Come on Home (J. Garrett)
TTITLE8=Ingrid Bergman (W. Guthrie)
TTITLE9=Honky Tonk Moon (R. Travis)
TTITLE10=Lost John/Little Rabbit (Trad.)
TTITLE11=Ice Covered Birches (Hofffman)
TTITLE12=Blackbird (Trad.)
EXTD=YEAR: 2005
EXTT0=
EXTT1=
EXTT2=
EXTT3=
EXTT4=
EXTT5=
EXTT6=
EXTT7=
EXTT8=
EXTT9=
EXTT10=
EXTT11=
EXTT12=
PLAYORDER=
